# xmcd
#
# Track frame offsets:
#	150
#	13748
#	31006
#	45237
#
# Disc length: 804 seconds
#
# Revision: 0
# Processed by: cddbd v1.5.2PL0 Copyright (c) Steve Scherf et al.
# Submitted via: audiograbber 1.83.01
#
DISCID=1f032204
DTITLE=Shelagh Brown - Shelagh Brown
DYEAR=2010
DGENRE=Country
TTITLE0=Anyone At Home Like You
TTITLE1=Sunflower
TTITLE2=I Love Not Being Your Girlfriend
TTITLE3=Blame It On The Devil Moon
EXTD=Shelagh Brown sings with energy that makes her music part of the listeners
EXTD=life. Bright and fresh talent from someone so approachable. Get her music
EXTD=now so you can say "I listened to her back when she first started". 
EXTT0=
EXTT1=
EXTT2=
EXTT3=
PLAYORDER=
